<?xml version="1.0" standalone="no"?>
<!DOCTYPE svg PUBLIC "-//W3C//DTD SVG 20010904//EN"
 "http://www.w3.org/TR/2001/REC-SVG-20010904/DTD/svg10.dtd">
<svg version="1.0" xmlns="http://www.w3.org/2000/svg"
 width="512.000000pt" height="512.000000pt" viewBox="0 0 512.000000 512.000000"
 preserveAspectRatio="xMidYMid meet">

<g transform="translate(0.000000,512.000000) scale(0.100000,-0.100000)"
fill="#000000" stroke="none">
<path d="M4581 5109 c-86 -17 -166 -64 -253 -148 l-83 -80 318 -318 318 -318
81 85 c127 132 174 261 150 406 -42 255 -281 422 -531 373z"/>
<path d="M2705 4903 c-61 -9 -133 -34 -180 -64 -55 -35 -263 -234 -306 -293
-31 -42 -39 -107 -18 -149 16 -31 2158 -2175 2191 -2193 35 -18 92 -18 133 2
49 23 285 269 321 334 72 130 78 280 15 415 -18 39 -56 90 -108 145 l-81 85
70 73 c38 40 82 94 98 119 85 133 84 332 -1 469 -40 64 -929 953 -993 993 -87
54 -201 77 -304 61 -103 -17 -175 -56 -272 -147 l-85 -81 -85 81 c-96 91 -169
130 -270 146 -66 11 -72 11 -125 4z"/>
<path d="M2240 2875 l-515 -515 318 -317 317 -318 517 517 518 518 -315 315
c-173 173 -317 315 -320 315 -3 0 -237 -232 -520 -515z"/>
<path d="M593 2914 c-48 -24 -284 -270 -319 -334 -72 -130 -78 -280 -15 -415
18 -39 56 -90 108 -145 l81 -85 -70 -73 c-38 -40 -82 -94 -98 -119 -85 -133
-84 -332 1 -469 40 -64 929 -953 993 -993 87 -54 201 -77 304 -61 103 17 176
56 272 147 l85 81 85 -81 c97 -91 169 -130 272 -147 103 -16 218 7 303 61 55
35 263 234 306 293 31 42 39 107 18 149 -16 31 -2158 2175 -2191 2193 -35 18
-95 18 -135 -2z"/>
<path d="M154 788 c-158 -169 -193 -346 -105 -534 80 -171 281 -277 467 -246
104 17 182 60 276 151 l83 80 -315 316 c-173 173 -318 315 -321 315 -4 0 -42
-37 -85 -82z"/>
</g>
</svg>
