<?xml version="1.0" standalone="no"?>
<!DOCTYPE svg PUBLIC "-//W3C//DTD SVG 20010904//EN"
 "http://www.w3.org/TR/2001/REC-SVG-20010904/DTD/svg10.dtd">
<svg version="1.0" xmlns="http://www.w3.org/2000/svg"
 width="512.000000pt" height="512.000000pt" viewBox="0 0 512.000000 512.000000"
 preserveAspectRatio="xMidYMid meet">

<g transform="translate(0.000000,512.000000) scale(0.100000,-0.100000)"
fill="#000000" stroke="none">
<path d="M2528 5105 c-517 -98 -921 -489 -1039 -1005 -26 -114 -36 -332 -19
-452 13 -101 45 -220 87 -327 l27 -69 55 -7 c323 -38 679 -193 924 -402 128
-109 101 -103 209 -45 447 241 1006 417 1503 473 61 7 112 13 113 15 5 4 -435
1048 -476 1129 -60 120 -131 216 -241 326 -179 179 -355 280 -606 345 -86 23
-125 27 -280 30 -127 2 -202 -1 -257 -11z m498 -361 c246 -80 459 -263 579
-497 44 -86 47 -96 43 -154 -3 -51 -9 -69 -34 -100 -41 -51 -87 -73 -152 -73
-90 0 -134 36 -198 160 -27 52 -62 98 -114 150 -80 80 -153 125 -261 159 -73
24 -118 63 -143 123 -39 92 4 195 99 239 54 25 88 24 181 -7z"/>
<path d="M4330 2894 c-449 -55 -879 -183 -1269 -379 -72 -36 -131 -68 -131
-72 0 -3 20 -40 45 -82 240 -410 307 -905 186 -1378 -43 -168 -120 -345 -216
-498 l-57 -90 61 -57 c161 -151 386 -263 623 -309 122 -24 338 -25 461 -4 475
83 868 426 1016 888 49 154 64 267 58 447 -8 240 -22 283 -309 965 l-245 580
-54 2 c-30 1 -106 -5 -169 -13z"/>
<path d="M1270 2870 c-607 -64 -1120 -529 -1245 -1128 -8 -40 -15 -80 -15 -88
0 -12 192 -14 1410 -14 l1410 0 -6 33 c-75 425 -312 778 -669 997 -139 86
-326 156 -488 184 -111 20 -292 27 -397 16z"/>
<path d="M10 1238 c0 -35 46 -217 73 -289 173 -459 558 -793 1038 -901 139
-31 446 -33 579 -4 285 62 516 188 721 395 165 166 277 345 347 557 24 70 62
232 62 260 0 2 -634 4 -1410 4 l-1410 0 0 -22z"/>
</g>
</svg>
