<svg xmlns="http://www.w3.org/2000/svg" xmlns:xlink="http://www.w3.org/1999/xlink" width="1080" zoomAndPan="magnify" viewBox="0 0 810 809.999993" height="1080" preserveAspectRatio="xMidYMid meet" version="1.0"><defs><clipPath id="436d66e759"><path d="M 1.933594 0 L 810 0 L 810 810 L 1.933594 810 Z M 1.933594 0 " clip-rule="nonzero"/></clipPath><clipPath id="9e29ef2c91"><path d="M 174 304.074219 L 208.523438 304.074219 L 208.523438 339 L 174 339 Z M 174 304.074219 " clip-rule="nonzero"/></clipPath><clipPath id="970812cb5f"><path d="M 6.773438 471 L 42 471 L 42 505.824219 L 6.773438 505.824219 Z M 6.773438 471 " clip-rule="nonzero"/></clipPath><clipPath id="07457ba596"><path d="M 658 304.074219 L 775 304.074219 L 775 398 L 658 398 Z M 658 304.074219 " clip-rule="nonzero"/></clipPath><clipPath id="f246e889b6"><path d="M 714 391 L 802.925781 391 L 802.925781 505.824219 L 714 505.824219 Z M 714 391 " clip-rule="nonzero"/></clipPath><clipPath id="8c4deff6d2"><path d="M 601.175781 392 L 713 392 L 713 442 L 601.175781 442 Z M 601.175781 392 " clip-rule="nonzero"/></clipPath><clipPath id="462d323f16"><path d="M 601.175781 456 L 713 456 L 713 505 L 601.175781 505 Z M 601.175781 456 " clip-rule="nonzero"/></clipPath><clipPath id="a510171854"><path d="M 471 575 L 617 575 L 617 776.683594 L 471 776.683594 Z M 471 575 " clip-rule="nonzero"/></clipPath><clipPath id="90dd4e4f33"><path d="M 171.867188 33.21875 L 373.617188 33.21875 L 373.617188 234.96875 L 171.867188 234.96875 Z M 171.867188 33.21875 " clip-rule="nonzero"/></clipPath><clipPath id="13dfd10801"><path d="M 183 574.933594 L 373.617188 574.933594 L 373.617188 776.683594 L 183 776.683594 Z M 183 574.933594 " clip-rule="nonzero"/></clipPath><clipPath id="d374a6cc3e"><path d="M 280 575 L 373.617188 575 L 373.617188 669 L 280 669 Z M 280 575 " clip-rule="nonzero"/></clipPath><clipPath id="06eadee138"><path d="M 172 689 L 259 689 L 259 776.683594 L 172 776.683594 Z M 172 689 " clip-rule="nonzero"/></clipPath><clipPath id="29e9ebf245"><path d="M 442.40625 44 L 644.15625 44 L 644.15625 226 L 442.40625 226 Z M 442.40625 44 " clip-rule="nonzero"/></clipPath><clipPath id="37af957e18"><path d="M 319 304.449219 L 500 304.449219 L 500 506.199219 L 319 506.199219 Z M 319 304.449219 " clip-rule="nonzero"/></clipPath></defs><g clip-path="url(#436d66e759)"><path fill="#000000" d="M 406.933594 810 C 183.183594 810 1.933594 627.5 1.933594 405 C 1.933594 182.5 183.183594 0 406.933594 0 C 630.683594 0 811.933594 181.25 811.933594 405 C 811.933594 628.75 629.433594 810 406.933594 810 Z M 406.933594 25 C 196.933594 25 26.933594 195 26.933594 405 C 26.933594 615 196.933594 785 406.933594 785 C 616.933594 785 786.933594 615 786.933594 405 C 786.933594 195 615.683594 25 406.933594 25 Z M 406.933594 25 " fill-opacity="1" fill-rule="nonzero"/></g><g clip-path="url(#9e29ef2c91)"><path fill="#000000" d="M 187.28125 304.507812 C 183.894531 305.175781 180.742188 307.027344 177.3125 310.335938 L 174.042969 313.488281 L 199.105469 338.550781 L 202.296875 335.203125 C 207.300781 330 209.152344 324.917969 208.207031 319.203125 C 206.550781 309.15625 197.132812 302.574219 187.28125 304.507812 Z M 187.28125 304.507812 " fill-opacity="1" fill-rule="nonzero"/></g><path fill="#000000" d="M 113.359375 312.625 C 110.957031 312.976562 108.121094 313.964844 106.265625 315.144531 C 104.101562 316.523438 95.902344 324.367188 94.210938 326.691406 C 92.988281 328.34375 92.671875 330.90625 93.5 332.5625 C 94.128906 333.785156 178.535156 418.265625 179.835938 418.976562 C 181.214844 419.683594 183.460938 419.683594 185.074219 418.898438 C 187.007812 417.992188 196.304688 408.296875 197.726562 405.734375 C 200.5625 400.613281 200.796875 394.703125 198.316406 389.382812 C 197.605469 387.847656 196.109375 385.835938 194.058594 383.667969 L 190.867188 380.320312 L 193.625 377.441406 C 195.125 375.867188 196.859375 373.738281 197.488281 372.753906 C 200.835938 367.511719 200.796875 359.671875 197.449219 354.273438 C 195.871094 351.75 160.84375 316.722656 158.320312 315.144531 C 154.890625 313.015625 150.398438 312.109375 146.339844 312.742188 C 142.28125 313.410156 139.445312 314.949219 135.625 318.535156 L 132.273438 321.726562 L 128.925781 318.535156 C 125.140625 314.949219 122.265625 313.410156 118.285156 312.78125 C 115.683594 312.347656 115.449219 312.347656 113.359375 312.625 Z M 113.359375 312.625 " fill-opacity="1" fill-rule="nonzero"/><path fill="#000000" d="M 95.039062 392.535156 L 74.742188 412.828125 L 87.273438 425.320312 L 99.765625 437.851562 L 120.136719 417.476562 L 140.550781 397.066406 L 128.136719 384.652344 C 121.320312 377.835938 115.644531 372.242188 115.527344 372.242188 C 115.410156 372.242188 106.1875 381.382812 95.039062 392.535156 Z M 95.039062 392.535156 " fill-opacity="1" fill-rule="nonzero"/><path fill="#000000" d="M 30.136719 391 C 28.246094 391.945312 18.949219 401.636719 17.566406 404.160156 C 14.730469 409.28125 14.496094 415.191406 16.976562 420.511719 C 17.6875 422.050781 19.183594 424.058594 21.234375 426.226562 L 24.425781 429.574219 L 21.667969 432.453125 C 20.167969 434.027344 18.433594 436.15625 17.804688 437.140625 C 14.457031 442.382812 14.496094 450.222656 17.84375 455.621094 C 19.421875 458.144531 54.449219 493.171875 56.972656 494.75 C 60.402344 496.878906 64.894531 497.785156 68.953125 497.152344 C 73.011719 496.484375 75.886719 494.945312 79.667969 491.359375 L 83.019531 488.167969 L 86.367188 491.359375 C 90.191406 494.945312 93.027344 496.484375 97.085938 497.152344 C 101.144531 497.785156 105.675781 496.878906 109.027344 494.75 C 111.191406 493.371094 119.390625 485.527344 121.082031 483.203125 C 122.304688 481.550781 122.621094 478.988281 121.792969 477.332031 C 121.164062 476.113281 36.757812 391.628906 35.457031 390.917969 C 34.078125 390.210938 31.714844 390.210938 30.136719 391 Z M 30.136719 391 " fill-opacity="1" fill-rule="nonzero"/><g clip-path="url(#970812cb5f)"><path fill="#000000" d="M 12.839844 474.773438 C 6.613281 481.429688 5.234375 488.40625 8.703125 495.8125 C 11.855469 502.550781 19.773438 506.730469 27.105469 505.507812 C 31.203125 504.835938 34.277344 503.144531 37.980469 499.558594 L 41.25 496.40625 L 28.839844 483.953125 C 22.019531 477.136719 16.308594 471.539062 16.1875 471.539062 C 16.03125 471.539062 14.535156 473 12.839844 474.773438 Z M 12.839844 474.773438 " fill-opacity="1" fill-rule="nonzero"/></g><g clip-path="url(#07457ba596)"><path fill="#000000" d="M 700.792969 304.664062 C 680.417969 308.523438 664.5 323.933594 659.851562 344.265625 C 658.824219 348.757812 658.433594 357.347656 659.101562 362.074219 C 659.613281 366.054688 660.875 370.746094 662.53125 374.960938 L 663.59375 377.679688 L 665.761719 377.957031 C 678.488281 379.453125 692.515625 385.558594 702.171875 393.796875 C 707.214844 398.089844 706.152344 397.855469 710.40625 395.570312 C 728.019531 386.074219 750.046875 379.136719 769.632812 376.929688 C 772.035156 376.65625 774.042969 376.417969 774.082031 376.339844 C 774.28125 376.183594 756.941406 335.042969 755.328125 331.851562 C 752.964844 327.125 750.164062 323.339844 745.832031 319.007812 C 738.777344 311.953125 731.84375 307.972656 721.953125 305.414062 C 718.5625 304.507812 717.027344 304.347656 710.917969 304.230469 C 705.914062 304.152344 702.957031 304.269531 700.792969 304.664062 Z M 720.414062 318.886719 C 730.109375 322.039062 738.5 329.25 743.230469 338.472656 C 744.964844 341.859375 745.082031 342.253906 744.925781 344.539062 C 744.804688 346.550781 744.570312 347.257812 743.585938 348.480469 C 741.96875 350.492188 740.15625 351.359375 737.59375 351.359375 C 734.046875 351.359375 732.316406 349.9375 729.792969 345.054688 C 728.730469 343.003906 727.351562 341.191406 725.300781 339.140625 C 722.148438 335.988281 719.273438 334.214844 715.015625 332.878906 C 712.140625 331.929688 710.367188 330.394531 709.382812 328.03125 C 707.84375 324.40625 709.539062 320.347656 713.28125 318.613281 C 715.410156 317.628906 716.75 317.667969 720.414062 318.886719 Z M 720.414062 318.886719 " fill-opacity="1" fill-rule="nonzero"/></g><g clip-path="url(#f246e889b6)"><path fill="#000000" d="M 771.796875 391.785156 C 754.105469 393.953125 737.160156 398.996094 721.792969 406.71875 C 718.957031 408.140625 716.632812 409.398438 716.632812 409.558594 C 716.632812 409.675781 717.421875 411.132812 718.40625 412.789062 C 727.863281 428.945312 730.503906 448.449219 725.734375 467.089844 C 724.039062 473.707031 721.007812 480.683594 717.222656 486.710938 L 714.976562 490.257812 L 717.378906 492.503906 C 723.726562 498.453125 732.589844 502.867188 741.929688 504.679688 C 746.738281 505.625 755.25 505.664062 760.09375 504.835938 C 778.8125 501.566406 794.296875 488.050781 800.128906 469.847656 C 802.0625 463.777344 802.652344 459.324219 802.414062 452.234375 C 802.101562 442.777344 801.546875 441.082031 790.238281 414.207031 L 780.585938 391.351562 L 778.457031 391.273438 C 777.273438 391.234375 774.28125 391.472656 771.796875 391.785156 Z M 771.796875 391.785156 " fill-opacity="1" fill-rule="nonzero"/></g><g clip-path="url(#8c4deff6d2)"><path fill="#000000" d="M 651.222656 392.730469 C 627.300781 395.253906 607.089844 413.578125 602.164062 437.179688 C 601.847656 438.757812 601.570312 440.332031 601.570312 440.648438 C 601.570312 441.121094 609.136719 441.199219 657.132812 441.199219 L 712.691406 441.199219 L 712.457031 439.898438 C 709.5 423.152344 700.160156 409.242188 686.09375 400.613281 C 680.617188 397.222656 673.246094 394.464844 666.863281 393.363281 C 662.492188 392.574219 655.359375 392.296875 651.222656 392.730469 Z M 651.222656 392.730469 " fill-opacity="1" fill-rule="nonzero"/></g><g clip-path="url(#462d323f16)"><path fill="#000000" d="M 601.570312 457.039062 C 601.570312 458.417969 603.382812 465.589844 604.449219 468.429688 C 611.265625 486.515625 626.4375 499.675781 645.351562 503.929688 C 650.828125 505.152344 662.925781 505.230469 668.164062 504.089844 C 679.394531 501.644531 688.496094 496.679688 696.574219 488.523438 C 703.078125 481.984375 707.492188 474.929688 710.25 466.574219 C 711.195312 463.816406 712.691406 457.433594 712.691406 456.332031 C 712.691406 456.25 687.710938 456.171875 657.132812 456.171875 L 601.570312 456.171875 Z M 601.570312 457.039062 " fill-opacity="1" fill-rule="nonzero"/></g><g clip-path="url(#a510171854)"><path fill="#000000" d="M 540.914062 575.328125 C 542.632812 575.328125 544.347656 575.328125 546.3125 575.441406 C 548.011719 576.5625 549.449219 577.597656 550.46875 579.078125 C 552.472656 581.988281 554.488281 584.894531 556.445312 587.832031 C 564.539062 599.976562 572.632812 612.121094 580.382812 624.488281 C 589.035156 638.304688 597.457031 652.246094 604.53125 666.96875 C 608.339844 674.894531 611.8125 682.929688 614.128906 691.421875 C 615.332031 695.832031 616.433594 700.347656 616.214844 704.917969 C 616.070312 707.960938 615.980469 711.039062 615.605469 714.097656 C 614.5 723.121094 611.78125 731.628906 607.492188 739.566406 C 602.714844 748.410156 596.308594 755.972656 588.304688 762.15625 C 580.683594 768.042969 572.234375 772.1875 563.015625 774.875 C 560.007812 775.75 556.839844 775.886719 553.917969 777.078125 C 547.210938 777.078125 540.503906 777.078125 533.527344 776.984375 C 533.027344 776.773438 532.808594 776.582031 532.566406 776.546875 C 527.4375 775.816406 522.488281 774.449219 517.652344 772.597656 C 505.382812 767.890625 495.113281 760.40625 486.941406 750.171875 C 479.433594 740.769531 474.597656 730.070312 472.375 718.199219 C 471.441406 713.234375 470.941406 708.199219 471.144531 703.199219 C 471.378906 697.386719 472.886719 691.722656 474.796875 686.207031 C 478.574219 675.285156 483.683594 664.980469 489.136719 654.816406 C 493.839844 646.054688 498.882812 637.492188 504.128906 629.0625 C 511.34375 617.46875 518.753906 605.988281 526.414062 594.683594 C 530.933594 588.019531 534.464844 580.5625 540.914062 575.328125 M 583.335938 724.671875 C 581.3125 729.3125 578.050781 733.105469 574.640625 736.699219 C 571.949219 739.542969 568.507812 741.558594 565.21875 743.703125 C 561.265625 746.285156 560.320312 750.714844 562.785156 754.84375 C 565.121094 758.761719 569.679688 760.085938 573.675781 757.773438 C 583.65625 752 591.46875 744.050781 596.914062 733.867188 C 601.097656 726.050781 603.65625 717.75 604.304688 708.84375 C 604.601562 704.734375 602.484375 701.023438 598.5 699.773438 C 594.699219 698.578125 590.875 700.300781 588.9375 703.921875 C 587.867188 705.914062 587.796875 708.097656 587.621094 710.203125 C 587.203125 715.246094 585.648438 719.90625 583.335938 724.671875 Z M 583.335938 724.671875 " fill-opacity="1" fill-rule="nonzero"/></g><g clip-path="url(#90dd4e4f33)"><path fill="#000000" d="M 186.722656 33.613281 C 179.746094 34.792969 173.441406 41.253906 172.261719 48.425781 C 171.75 51.578125 171.75 216.605469 172.261719 219.757812 C 173.441406 227.125 179.707031 233.390625 187.078125 234.574219 C 190.230469 235.085938 355.253906 235.085938 358.40625 234.574219 C 365.777344 233.390625 372.039062 227.125 373.222656 219.757812 C 373.734375 216.605469 373.734375 51.578125 373.222656 48.425781 C 372.039062 41.058594 365.777344 34.792969 358.40625 33.613281 C 355.570312 33.136719 189.480469 33.179688 186.722656 33.613281 Z M 281.214844 61.195312 C 299.578125 63.242188 316.875 71.164062 329.011719 83.023438 C 332.203125 86.175781 332.242188 86.253906 332.242188 88.1875 L 332.242188 90.117188 L 318.570312 103.871094 C 310.492188 111.945312 304.304688 117.859375 303.515625 118.210938 C 301.625 119.039062 300.207031 118.566406 297.410156 116.164062 C 292.40625 111.90625 287.402344 109.425781 280.820312 107.886719 C 276.996094 106.980469 268.328125 106.980469 264.78125 107.886719 C 263.914062 108.125 263.5625 107.453125 258.949219 97.210938 C 256.230469 91.21875 253.550781 85.820312 253 85.191406 C 251.070312 83.101562 247.957031 83.339844 246.183594 85.742188 C 244.765625 87.675781 245.121094 89.015625 250.242188 100.242188 C 252.84375 105.996094 255.011719 110.921875 255.011719 111.160156 C 255.011719 111.394531 254.023438 112.144531 252.804688 112.851562 C 251.582031 113.523438 249.53125 114.980469 248.273438 116.046875 C 245.394531 118.449219 244.054688 118.960938 242.320312 118.371094 C 241.414062 118.054688 236.765625 113.679688 227.113281 104.027344 L 213.242188 90.117188 L 213.242188 88.226562 C 213.242188 86.492188 213.398438 86.175781 215.527344 83.96875 C 226.71875 72.1875 245.554688 63.320312 263.679688 61.234375 C 267.894531 60.761719 277.035156 60.722656 281.214844 61.195312 Z M 281.214844 61.195312 " fill-opacity="1" fill-rule="nonzero"/></g><g clip-path="url(#13dfd10801)"><path fill="#000000" d="M 188.96875 576.390625 C 187.589844 579.699219 185.265625 587.226562 184.398438 591.128906 C 183.648438 594.675781 183.53125 596.328125 183.53125 603.5 C 183.53125 611.183594 183.609375 612.050781 184.59375 615.636719 C 185.144531 617.765625 186.210938 620.878906 186.957031 622.53125 C 189.835938 629.230469 189.71875 629.113281 229.554688 669.03125 L 267.027344 706.542969 L 271.796875 701.773438 L 276.605469 697.007812 L 308.402344 732.589844 C 325.898438 752.171875 341.148438 769.15625 342.25 770.339844 C 346.980469 775.304688 352.890625 777.429688 358.839844 776.328125 C 370.542969 774.160156 376.730469 761.867188 371.609375 751.070312 C 370.464844 748.664062 364.476562 742.597656 283.617188 661.699219 L 196.890625 574.933594 L 189.597656 574.933594 Z M 188.96875 576.390625 " fill-opacity="1" fill-rule="nonzero"/></g><g clip-path="url(#d374a6cc3e)"><path fill="#000000" d="M 309.546875 597.078125 C 297.605469 609.054688 287.28125 619.65625 286.652344 620.640625 C 283.539062 625.25 282.082031 629.269531 281.253906 635.222656 C 280.9375 637.507812 280.503906 639.832031 280.269531 640.382812 C 279.914062 641.328125 280.621094 642.15625 293.390625 654.882812 L 306.90625 668.398438 L 309.898438 667.769531 C 311.554688 667.414062 313.367188 667.136719 313.957031 667.136719 C 316.085938 667.136719 320.304688 665.878906 323.96875 664.105469 L 327.710938 662.292969 L 350.566406 639.515625 L 373.421875 616.699219 L 369.480469 612.761719 C 367.3125 610.59375 365.382812 608.820312 365.144531 608.820312 C 364.949219 608.820312 357.617188 615.953125 348.910156 624.660156 L 333.03125 640.539062 L 328.894531 636.402344 L 324.753906 632.265625 L 340.792969 616.226562 L 356.871094 600.152344 L 352.613281 595.933594 L 348.398438 591.679688 L 316.285156 623.792969 L 312.144531 619.65625 L 308.007812 615.519531 L 323.890625 599.640625 C 332.597656 590.929688 339.730469 583.601562 339.730469 583.402344 C 339.730469 582.890625 332.164062 575.328125 331.652344 575.328125 C 331.414062 575.328125 321.484375 585.136719 309.546875 597.078125 Z M 309.546875 597.078125 " fill-opacity="1" fill-rule="nonzero"/></g><g clip-path="url(#06eadee138)"><path fill="#000000" d="M 204.140625 719.429688 C 176.792969 746.851562 174.703125 749.058594 173.679688 751.34375 C 169.1875 761.707031 174.507812 772.976562 185.226562 775.894531 C 187.511719 776.484375 192.515625 776.40625 194.761719 775.738281 C 199.015625 774.4375 199.488281 774.003906 229.398438 744.132812 L 258.753906 714.816406 L 246.339844 702.40625 C 239.523438 695.589844 233.851562 689.992188 233.730469 689.992188 C 233.613281 689.992188 220.292969 703.234375 204.140625 719.429688 Z M 204.140625 719.429688 " fill-opacity="1" fill-rule="nonzero"/></g><g clip-path="url(#29e9ebf245)"><path fill="#000000" d="M 494.023438 44.488281 C 485.472656 45.394531 475.542969 49.296875 467.898438 54.734375 C 463.683594 57.765625 457.378906 64.070312 454.34375 68.367188 C 448.078125 77.273438 444.019531 88.226562 442.757812 99.851562 C 441.929688 107.339844 442.917969 118.804688 445.042969 126.566406 L 445.753906 129.128906 L 461.003906 129.246094 L 476.292969 129.324219 L 482.28125 117.425781 C 488.902344 104.304688 489.175781 103.988281 492.644531 103.988281 C 496.308594 103.988281 495.914062 103.398438 507.460938 126.371094 L 517.980469 147.253906 L 528.109375 126.960938 C 533.664062 115.808594 538.707031 106.195312 539.261719 105.566406 C 541.308594 103.398438 545.210938 103.359375 547.257812 105.527344 C 547.773438 106.078125 550.765625 111.59375 553.917969 117.820312 L 559.632812 129.128906 L 581.382812 129.324219 C 602.464844 129.523438 603.132812 129.5625 604.199219 130.3125 C 605.894531 131.570312 606.800781 133.582031 606.601562 135.589844 C 606.367188 137.757812 605.339844 139.136719 603.175781 140.242188 L 601.441406 141.148438 L 578.546875 141.148438 C 564.792969 141.148438 555.140625 140.988281 554.351562 140.753906 C 553.601562 140.554688 552.539062 139.925781 551.988281 139.414062 C 551.4375 138.863281 549.269531 135.039062 547.21875 130.902344 C 545.171875 126.804688 543.398438 123.414062 543.28125 123.414062 C 543.160156 123.414062 538.550781 132.476562 533.035156 143.550781 C 522.433594 164.75 521.882812 165.65625 519.085938 166.167969 C 517.546875 166.484375 515.421875 165.894531 514.042969 164.789062 C 513.527344 164.394531 508.800781 155.410156 502.890625 143.550781 L 492.644531 123.019531 L 488.625 131.058594 C 485.117188 138.035156 484.371094 139.253906 483.070312 140.042969 C 481.613281 140.949219 481.574219 140.949219 465.929688 141.066406 L 450.246094 141.1875 L 452.925781 146.386719 C 467.109375 173.972656 496.308594 200.6875 537.210938 223.421875 C 543.003906 226.65625 543.554688 226.65625 549.347656 223.421875 C 585.046875 203.601562 611.644531 180.90625 627.605469 156.671875 C 645.769531 129.089844 649.078125 100.085938 636.785156 76.050781 C 633.832031 70.21875 630.480469 65.648438 625.832031 60.960938 C 615.46875 50.675781 602.976562 44.960938 589.183594 44.332031 C 573.226562 43.582031 558.214844 50.476562 546.039062 64.191406 L 543.199219 67.382812 L 541.308594 65.175781 C 536.226562 59.027344 528.542969 52.84375 522.039062 49.53125 C 513.960938 45.472656 503.085938 43.503906 494.023438 44.488281 Z M 494.023438 44.488281 " fill-opacity="1" fill-rule="nonzero"/></g><g clip-path="url(#37af957e18)"><path fill="#000000" d="M 388.230469 304.882812 C 374.636719 306.300781 361 311.738281 349.691406 320.289062 C 345.554688 323.402344 338.421875 330.535156 335.308594 334.671875 C 321.4375 353.035156 316.433594 375.96875 321.4375 398.230469 C 324.355469 411.3125 331.054688 423.921875 340.15625 433.617188 L 343.113281 436.769531 L 343.113281 506.199219 L 425.859375 506.199219 L 425.859375 469.949219 L 441.425781 469.949219 C 451.316406 469.949219 457.699219 469.789062 459.039062 469.515625 C 465.621094 468.136719 471.214844 462.65625 472.710938 456.117188 C 472.949219 455.171875 473.144531 449.417969 473.144531 443.3125 L 473.144531 432.277344 L 486.542969 425.65625 L 499.941406 419.039062 L 498.402344 416.832031 C 497.578125 415.609375 491.625 406.78125 485.164062 397.246094 L 473.382812 379.910156 L 472.910156 374.984375 C 471.058594 356.582031 464.042969 341.097656 451.671875 328.171875 C 435.316406 311.070312 411.832031 302.441406 388.230469 304.882812 Z M 380.941406 340.464844 C 386.378906 341.648438 390.554688 343.855469 394.457031 347.597656 L 396.347656 349.410156 L 398.867188 347.046875 C 403.519531 342.710938 409.035156 340.386719 415.617188 340.03125 C 420.421875 339.796875 424.167969 340.542969 428.617188 342.710938 C 431.339844 344.050781 432.636719 344.996094 435.316406 347.753906 C 440.480469 352.917969 442.960938 358.550781 443.472656 366.117188 C 444.222656 377.664062 438.746094 387.710938 424.992188 400.085938 C 415.617188 408.476562 396.621094 424.277344 396.109375 424.082031 C 395.363281 423.804688 371.402344 403.472656 366.714844 399.179688 C 362.183594 395 357.847656 390.3125 355.484375 387 C 353.355469 384.007812 350.835938 378.726562 350.007812 375.574219 C 348.078125 368.285156 349.257812 359.378906 353.042969 352.996094 C 353.75 351.734375 355.761719 349.292969 357.535156 347.519531 C 360.09375 344.957031 361.394531 344.011719 364.113281 342.710938 C 369.589844 340.03125 375.34375 339.285156 380.941406 340.464844 Z M 380.941406 340.464844 " fill-opacity="1" fill-rule="nonzero"/></g><path fill="#000000" d="M 372.152344 352.167969 C 363.523438 354.21875 358.558594 365.015625 362.027344 374.3125 C 364.585938 381.210938 370.890625 387.75 390.515625 404.101562 L 396.308594 408.949219 L 398.59375 407.097656 C 412.503906 395.671875 422.234375 386.804688 425.859375 382.273438 C 429.722656 377.425781 431.769531 372.421875 431.769531 367.890625 C 431.769531 355.832031 420.816406 348.464844 410.21875 353.390625 C 407.933594 354.453125 403.832031 358.433594 402.652344 360.71875 L 401.824219 362.375 L 390.949219 362.375 L 390.003906 360.679688 C 386.300781 354.136719 378.890625 350.59375 372.152344 352.167969 Z M 372.152344 352.167969 " fill-opacity="1" fill-rule="nonzero"/></svg>