<?xml version="1.0" encoding="iso-8859-1"?>
<!-- Uploaded to: SVG Repo, www.svgrepo.com, Generator: SVG Repo Mixer Tools -->
<svg height="800px" width="800px" version="1.1" id="Layer_1" xmlns="http://www.w3.org/2000/svg" xmlns:xlink="http://www.w3.org/1999/xlink" 
	 viewBox="0 0 512 512" xml:space="preserve">
<path style="fill:#39A3DB;" d="M403.476,277.818h-42.996c-54.228,0-97.9-38.835-107.769-88.102H103.752
	c-11.593,0-21.161-9.065-21.786-20.64l-7.898-146.08C73.391,10.502,83.355,0,95.854,0h320.291c12.516,0,22.46,10.515,21.786,22.998
	L425.262,257.18C424.637,268.755,415.067,277.818,403.476,277.818z"/>
<g>
	<path style="fill:#4881C2;" d="M416.145,0H255.999v202.189c14.07,43.018,54.8,75.629,104.48,75.629h42.996
		c11.593,0,21.161-9.063,21.788-20.639l12.669-234.182C438.605,10.499,428.645,0,416.145,0z"/>
	<path style="fill:#4881C2;" d="M390.821,512H121.178c-11.593,0-21.161-9.065-21.786-20.64L81.966,169.076
		c-0.676-12.495,9.287-22.996,21.786-22.996h168.625c12.049,0,21.818,9.769,21.818,21.818c0,36.636,29.644,66.284,66.284,66.284
		h42.996c12.513,0,22.46,10.513,21.788,22.996L412.609,491.36C411.981,502.935,402.413,512,390.821,512z"/>
</g>
<path style="fill:#3E6EA6;" d="M403.476,234.182h-42.996c-36.636,0-66.284-29.644-66.284-66.284
	c0-12.049-9.769-21.818-21.818-21.818h-16.378V512h134.82c11.593,0,21.161-9.065,21.786-20.64l12.655-234.182
	C425.935,244.682,415.976,234.182,403.476,234.182z"/>
<g>
	<circle style="fill:#39A3DB;" cx="198.632" cy="275.404" r="19.398"/>
	<circle style="fill:#39A3DB;" cx="198.632" cy="402.807" r="19.398"/>
</g>
<circle style="fill:#4881C2;" cx="313.367" cy="339.098" r="19.398"/>
</svg>