<?xml version="1.0" standalone="no"?>
<!DOCTYPE svg PUBLIC "-//W3C//DTD SVG 20010904//EN"
 "http://www.w3.org/TR/2001/REC-SVG-20010904/DTD/svg10.dtd">
<svg version="1.0" xmlns="http://www.w3.org/2000/svg"
 width="512.000000pt" height="512.000000pt" viewBox="0 0 512.000000 512.000000"
 preserveAspectRatio="xMidYMid meet">

<g transform="translate(0.000000,512.000000) scale(0.100000,-0.100000)"
fill="#000000" stroke="none">
<path d="M377 5110 c-177 -30 -337 -194 -367 -376 -13 -80 -13 -4268 0 -4348
30 -187 189 -346 376 -376 80 -13 4268 -13 4348 0 187 30 346 189 376 376 13
80 13 4268 0 4348 -30 187 -189 346 -376 376 -72 12 -4287 11 -4357 0z m2398
-700 c466 -52 905 -253 1213 -554 81 -80 82 -82 82 -131 l0 -49 -347 -349
c-205 -205 -362 -355 -382 -364 -48 -21 -84 -9 -155 52 -127 108 -254 171
-421 210 -97 23 -317 23 -407 0 -22 -6 -31 11 -148 271 -69 152 -137 289 -151
305 -49 53 -128 47 -173 -14 -36 -49 -27 -83 103 -368 66 -146 121 -271 121
-277 0 -6 -25 -25 -56 -43 -31 -17 -83 -54 -115 -81 -73 -61 -107 -74 -151
-59 -23 8 -141 119 -386 364 l-352 353 0 48 c0 44 4 52 58 108 284 299 762
524 1222 577 107 12 339 13 445 1z"/>
</g>
</svg>
